# xmcd
#
# Track frame offsets: 
#        150
#        11415
#        22512
#        35086
#        47607
#        59461
#        71209
#        81282
#        89503
#        98562
#        109724
#        119941
#
# Disc length: 1731 seconds
#
# Revision: 0
# Processed by: cddbd v1.5.2PL0 Copyright (c) Steve Scherf et al.
# Submitted via: ExactAudioCopy v0.99pb4
#
DISCID=9b06c10c
DTITLE=Ronnie McDowell - Number Ones That Got Away Vol. 4
DYEAR=1900
DGENRE=Oldies
TTITLE0=Love Letters
TTITLE1=Give me the right
TTITLE2=Do you know who I am
TTITLE3=Doin' the best I can
TTITLE4=I met her today
TTITLE5=I need you so
TTITLE6=I'm yours
TTITLE7=Just tell her Jim said hello
TTITLE8=For the millionth and the last time
TTITLE9=Pocket full of rainbows
TTITLE10=Young dreams
TTITLE11=What's she really like
EXTD=
EXTT0=
EXTT1=
EXTT2=
EXTT3=
EXTT4=
EXTT5=
EXTT6=
EXTT7=
EXTT8=
EXTT9=
EXTT10=
EXTT11=
PLAYORDER=
